<?xml version="1.0" encoding="UTF-8"?>
<svg id="Layer_1" data-name="Layer 1" xmlns="http://www.w3.org/2000/svg" viewBox="0 0 759.68 349.99">
  <path d="M438.98,349.94c-8.16-1.11-14.61-4.86-14.01-14-9.46,5.6-20.79,16.58-32.94,12.45-3.7-1.26-5.54-7.37-8.52-7.43-8.37,3.55-34,16.68-33.61-.52.2-8.41,18.68-37.16,24.66-44.41,3.21-3.89,10.31-9.4,12.27-1.8-4.32,8.1-27.59,40.63-25.75,48.12,1.06,4.31,16.09-2.6,18.86-3.95,13.98-6.82,20.92-27.86,29.62-40.37,4.33-6.23,4.99-6.86,13.42-6.08-.01,1.13.17,2.32-.05,3.44-1.85,9.59-20.33,30.17-24.5,40.5-5.67,18.57,21.5.19,26.09-4.9,3.54-3.93,5.52-12.61,9.05-17.95,7.91-11.97,22.71-24.22,37.96-22.14,12.1,1.65,6.72,19.29-5.55,14.04-1.48-2.05,14.79-11.16,2.51-11.07-10.73.08-21.6,10.69-26.68,19.41-3.35,5.74-11.26,24.02-5.78,29.11,1.27,1.18,6.8,3.42,8.54,3.5,4.89.2,20.08-8.84,23.34-12.52,2.48-2.8,2.52-6.58,4.25-9.75,8.18-14.95,33.83-38.22,52.1-34.44,5.25,1.09,8.78,6.82,15.72,3.77l-.77,6.72-23.98,39.02c-3.3,12.33,14.89,2.51,19.78-.23,13.56-7.57,17.66-17.9,25.15-30.84,8.28-14.31,15.57-29.25,22.96-44.03,3.56-4.19,8.85-3.84,13.87-3.63l-.46,4.04-15.53,26.45c.01,2.16,10.58,1.32,12.98,2.52v2.97c-5.57.62-12.63-1.87-17,2.5-5.71,12.02-18.44,24.8-23.54,36.45-1.18,2.7-2.34,5.06-1.02,8.11,3.95,2.4,8.9.24,12.6-1.53,2.89-1.38,19.37-14.57,21.86-17.14,7.22-7.45,11.69-23.02,18.06-31.66,2.51-2.47,10.76-3.26,9.91,1.56l-23.44,46.66c3.07,9.09,22.03-7.5,24.44-11.6,1.68-2.85,1.97-6.66,3.41-9.59,6.84-13.91,31.92-31.68,47.79-28.31,16.89,3.58,3.9,29.74-3.03,38.07-7.93,9.53-36.7,29.69-46.49,14.44-2-3.12-.92-7.24-3.52-8.96-2.72,12.82-38.96,22.32-34.82,3.71.5-2.23,3.5-3.68,2.31-5.71-9.69,7.5-20.53,18.04-33.95,15.92-6.49-1.03-8.85-4.8-6.57-10.93-8.06,5.87-21.93,13.93-32.3,10.81-3.28-.99-3.26-7.55-7.62-7.91l.04-1.23c10-11.89,18.67-24.84,24.87-39.19-9.55-13.51-18.69-5.15-27,4-7.39,8.13-20.04,24.06-16.52,35.57,2.01,6.59,8.77,1.36,9.55,6.94-11.96,4.47-21.82,3.42-23.5-10.98-6.81,7.51-16.41,10.37-25.5,13.99-1.3-.11-2.73.17-4,0h-.02ZM652.71,298.18c-6.62,1.36-18.87,15.09-21.9,21.1-2.87,5.69-7.33,20.55.42,23.91,13.86,6.01,33.09-22.91,33.69-34.87.37-7.29-5.15-11.59-12.21-10.13h0Z"/>
  <path d="M177.98,0c5.01,1.43,9.52,1.16,14.78,2.72,12.96,3.85,21.44,12.59,27.99,23.9-2.55,15.4-2.11,27.39-12.35,40.28-13.61,17.13-49.82,31.38-69.16,17.43-3.92-2.83-8.99-16.45-13.54-15.24-1.96.52-13.78,10.9-16.99,13.11-13.42,9.22-30.12,18.39-46.78,18.3-12.64,17.77-14.42,54.03,2.56,69.46,14.43,13.12,51.88,13.04,68.52,4.52,3.16-1.62,14.55-10.54,15.49-10.49,2.85.13.94,4-.47,5.51-7.85,8.39-38.9,17.75-50.49,18.5-47.68,3.11-63.65-26.4-55.26-70.25.53-2.79,4.5-12.23,3.31-13.83-20.15-5.13-39.39-6.47-45.59-29.94v-13c6.02-17.39,22.32-29.23,39.99-32.99-.69,5.05-6.97,5.52-10.66,7.83-8.68,5.42-16.81,11.72-18.25,22.75-3.46,26.52,10.04,40.03,36.25,39.25,5.17-8.6,9.22-17.8,14.85-26.15C84.27,38.91,118.38,13.94,156.46,2.98l12.52-2.98h9ZM143.98,52.99c-.09,10.23-3.67,16.12,3.59,24.91,8.54,10.34,27.9,6.43,38.44.62,25.17-13.88,31.77-57.45.41-66.47C141.15-.96,104.29,28.73,80.57,64.08c-2.25,3.35-17.34,28.09-15.58,29.9,20.08-3.68,40.76-11.83,56.46-25.02,6.73-5.65,12.88-16.22,22.53-15.97Z"/>
  <path d="M345.98,127.97c2.48-.24,14.94.68,14.98,3.51-5.58,3.39-13.46-2.06-18.99,3.99-4.87,11.79-22.55,29.24-25.53,40.48-.46,1.74-.94,3.31.02,5.02,2.03,4.05,9.48.9,12.46-.55,3.99-1.95,20.4-15.01,23.59-18.41,5.75-6.12,15.43-31.11,20.16-33.83,2.2-1.27,9.91-2,9.32,1.28l-24.88,50.19c-.24,2.47,2.74,2.41,4.37,2.42,10.48,0,23.72-18.08,28.91-26.17,3.89-6.06,11.27-22.51,15.66-26.33,3.08-2.68,6.46-3.05,10.16-1.49.81.34.51,1.94,2.24,2.02,3.8.17,7.46-2.91,11.52-2.1,1.83,1.56-8.21,6.35-9.33,7.16-8.05,5.87-13.29,13.08-18.48,21.52-4.56,7.42-12.11,27.61-20.94,29.08-4.58.76-7.25.16-6.75-4.77-10.37,10.45-40.94,11.16-26.51-9.51.22-.67-.95-.73-1.48-.49-2.4,1.1-9.24,8.19-12.6,10.4-7.02,4.62-13.09,7.82-21.91,6.6,2.91,14.89-19.19,36.59-32.74,38.74-14.25,2.26-23.35-3.81-26.31-17.71l-2.22.15c-6.43,5.41-14.52,5.58-15.64,15.4-.37,3.21,1.8,9.72-.03,10.96-1.67,1.13-9.44.21-12.43.57-28.46,3.41-67.19,25.03-70.5,56.49-6.69,63.61,85.13,64.59,111.39,15.39,9.62-18.03,6.27-35.65-13.53-43.49-18.15-7.19-31.61-1.3-43.49,13.47-13.25,16.46-7.5,36.2,15.29,30.8l1.38-7.13c1.1-3.36,10.64-2.93,10.51,4.67-.12,6.82-8.66,14.28-15.19,14.73-3.28.23-13.79-2.71-16.75-4.3-8.81-4.7-9.57-18.27-7.28-26.81,4.59-17.03,28.66-33.86,46-34.99,30.93-2.03,47.16,21.4,33.56,49.55-23.68,49-129.94,67.3-134.99,1.97-2.79-36.14,22.67-58.14,54.22-67.74,5.92-1.8,24.87-4.95,28.11-6.89,2.61-1.56,1.54-4.25,1.66-6.85-5.65.31-10.75,2.63-16.46,3.04-15.56,1.13-32.15.09-45.45-8.63s-18.27-24.35-7.09-36.9c1.85-2.08,6.6-4.44,7.48-6.52,1.34-3.2.13-8.47,1.21-12.79,3.22-12.99,19.3-25.67,30.96-31.04,35.6-16.39,36.25,12.31,18.77,34.76-9.6,12.34-33.66,28.08-48.86,17.09-12.26,14.1,2.28,35.81,18.2,38.73,8.56,1.57,36.19.82,41.95-6.02,1.78-2.12,5.36-14.71,8.12-19.38,5.21-8.82,12.94-16.12,21.87-21.13,4.01-2.25,15.39-5.69,17.35-7.65s4.31-8.79,6.16-11.84c2.34-3.86,12.21-16.81,12.64-19.46.91-5.63-7.53-6.88-5.83-9.23,4.97-3.05,17.22,1.36,16.99,7.37-.28,7.19-20.58,33.43-18.99,34.6,4.06.28,8.43-.39,12.45.07,2.35.27,3.97,2.23,7.06,2.04,4.37-.26,5.07-4.73,7.49-7.65l2.51,1.45c14.34-21.59,25.66-45.1,37.96-67.92,2.29-2.01,13.5-5.32,13.54-.52l-17.01,30.54h-.03ZM175.25,180.7c10.57,9.14,28.51-12.44,32.91-21.04,2.94-5.74,7.04-18.67.79-23.16-13.63-9.79-37.56,23.55-35.98,36.47,2.67.05,8.02.18,5.42,4.09l-4.42.92c-.11.11,1,2.48,1.27,2.72h0ZM290.98,176.99l-10.34-2.9-3.66,6.88c2.45,2.55,16.32-.83,14-3.97h0ZM266.98,174.98c-16.52,2.42-26.36,19.65-27.99,34.98,2.96,3.07,25-18.49,30.99-16.99.63,8.26-8.05,13.33-1.47,21.97,6.37,8.37,19.99,2.1,25.87-4.08,8.69-9.13,10.44-20.53.97-29.75-10.04,5.36-34.72,15.15-28.37-6.13h0Z"/>
  <path d="M689.99,183.96c9.36-3.81,20.81-9.31,28.04-16.45.76-.75,12.97-17.24,10.52-7.5-2.28,9.08-18.51,20.96-26.55,25.47-4.25,2.39-15.36,5.99-17.71,7.79-1.56,1.19-11.18,18.17-14.33,22.16-7.44,9.42-18.4,19.82-29.71,24.28-6.7,2.64-13.21,2.74-19.8,5.2-5.84-.06-11.83-4.46-12.49-10.45-1.7-15.43,22.16-27.7,34.06-32.98,5.05-2.24,33.64-11.19,33.95-15.03.18-2.25-2.75-.59-3.42-.46-16.16,3.35-23.59,2.66-25.57-16.04-6.46,6.12-12.93,11.81-21.47,15.02-9.08,3.41-25.61,6.6-20.74-8.74,3.46-10.89,20.5-28.82,22.98-38.02,2.12-7.88-4.41-4.89-5.76-10.24,36.11-4.04,2.53,30.56-3.49,44-1.22,2.73-3.73,7.14-1.57,9.54,4.93,3.43,23.15-8.04,27.09-12.03,5.94-6.01,8.25-16.43,14.45-23.54,7.37-8.45,30.18-22.12,41.26-22.74,4.75-.27,8.72,3.28,12.86,3.7,3.12.32,10.41-2.74,8.97,2.12l-31.58,54.92v.02ZM701.73,132.22c-15.34-6.83-28.97,9.36-35.95,21.06-5.33,8.95-14.51,31.46,5.23,26.21,12.82-3.41,24.77-31.96,31.56-42.5l-.84-4.77h0ZM665.97,198.97c-13.59,4.04-32.3,8.56-42.54,18.95-5.84,5.92-8.11,16.17,2.28,17.8,13.25,2.08,21.76-8.31,28.67-17.85l11.59-18.9h0Z"/>
  <path d="M496.85,128.11c.72,1.13.05,3.51-.43,4.81-2.86,7.74-14.02,20.71-18.61,29.38-2.31,4.37-8.04,14.33-6.88,19s19.31-4.15,22.08-5.8c5.48-3.26,9.24-9.04,12.78-14.22,3.9-5.7,16.61-30.65,20.59-32.4,2.35-1.04,9.1-1.76,9.35,1.58.08,1.13-9.42,17.24-10.94,19.81-3.15,5.3-14.47,20.25-15.55,24.43-.57,2.19-.4,4.86-.1,7.11,8.92,3.42,22.57-7.54,27.85-14.35,4.5-5.78,20.13-38.01,22.78-39.47s6.47-1.15,9.13.06l.08,2.33-23.51,46.55-.37,4.91c4.46,2.13,10.14-1.76,13.8-4.47,17.06-12.61,23.3-31.85,35.56-48.42,6.83-5,9.88,1.57,12.01,1.74,1.4.11,7.44-5.02,10.52-2.22-.05,2.8-8.81,6.42-11.49,8.51-16.22,12.66-19.23,31.58-30.67,45.33-2.47,2.97-7.5,4.04-11.22,3.52l-2.13-4.87c-7.89,7.6-28.6,12.42-30.99-2-10.81,7.27-27.7,16.33-35.11.12-7.95,4.06-40.82,18.49-36.75-1.89,1.61-8.07,21.62-39.96,27.83-46.24,2.11-2.13,8.14-6.4,10.38-2.85h0Z"/>
  <path d="M340.98,338.95c-5.23,8.69-28.2,16.67-30.51,2.98-8.61,2.84-21.81,11.97-30.41,4.43-10.83-9.49,4.62-32.76,11.95-40.88,13.4-14.85,27.42-13.24,45.77-12.74,7.25-12.48,15.03-24.68,22.38-37.11,2.49-4.21,10.26-20.59,12.36-22.64,2.97-2.91,9.63-2.2,12.46.53l-.5,2.41c-12.31,20.22-25.66,39.85-37.9,60.1-5.95,9.85-22.44,34.44-25.13,43.88-3.3,11.61,15.16-.67,19.55-.96h-.02ZM321.77,297.15c-13.31,1.15-30.64,22.5-34.56,34.52-1.71,5.24-2.6,10.13,4.33,11.21,19.35,3.03,28.65-27.69,38-39.85-.33-4.09-3.86-6.22-7.76-5.89h0Z"/>
  <path d="M278.98,127.98c.43,2.06-1.02,2.32-2.3,3.19-27.42,18.56-21.8,27.02-38.88,49.12-3.41,4.42-8.47,7.98-13.92,4.24-2.18-2.51,2.59-6.95,4.1-9.06-2.82-.5-6.27,3.93-9.3,5.7-1.53.89-10.77,5.76-11.69,4.8-1.07-1.12.23-2.41,1.22-3.3,3.14-2.82,8.62-5.88,12.24-8.72,4.47-3.51,8-9.29,14.01-9.91l21.59-35.48c6.14-4.02,9.85,1.65,13.35,1.45,2.43-.14,6.04-3.39,9.58-2.01v-.02Z"/>
  <path d="M717.14,293.83c1.17.91,12.9-6.62,10.86-.37-.3.92-13.12,8.06-16.02,11-2.79,2.83-6.19,8.12-8.42,11.58-4.15,6.45-11.98,24.54-16.52,28.48-2.89,2.51-7.31,2.78-10.96,2.33-2.63-4.8,3.61-7.55,3.4-11.89-5.27,5.72-12.59,11.33-20.5,11.99-2-1.76,12.16-9.97,13.47-11.01,4.72-3.75,7.14-9.4,13.52-10.4l20.3-33.27c1.91-1.52,7.85-2.04,9.74-.78.7.47.75,2.06,1.13,2.36v-.02Z"/>
  <path d="M428.98,181.97c8.38.37,17.06-3.87,23.48-9.02,2.94-2.36,5.32-6.44,7.46-8.3.92-.8,2.49-1.38,3.05-.18-5.41,11.86-28.29,26.17-41.06,23.07-6.38-1.55-5.63-7.73-3.66-12.8l22.58-37.49c1.31-6.8-5-4.43-5.84-9.26,5.82-1.94,17.87.22,16.82,8.22-1.12,8.49-27.39,41.19-22.82,45.76h0Z"/>
  <path d="M727.97,342.95c12.79,1.05,23.76-8.94,31.51-18,1.63,4.24-7.2,11.83-10.59,14.41-4.16,3.16-14.64,8.55-19.65,9.34-26.72,4.25-4.84-25.42,1.32-35.67,4.52-7.52,14.91-15.28,2.44-20.58-.07-2.74,15.56-2.8,16.81,5.21s-27.04,40.03-21.83,45.28h0Z"/>
  <path d="M393.74,104.22c4.55,6.79-5.31,14.62-10.23,7.74s4.13-11.51,10.23-7.74Z"/>
  <path d="M580.74,104.22c5.3,5.3-4.85,15.19-10.23,7.73s6.07-11.9,10.23-7.73Z"/>
  <path d="M619.72,267.12c5.38-.97,10.87,4,6.72,8.79-7.62,8.78-17-6.95-6.72-8.79Z"/>
  <path d="M341.99,338.94c-.54-.57,5.19-8.46,5.97-9.24.84-.84,1.89-1.41,3.01-1.76,1.44,1.81-6.25,10.85-8.98,11Z"/>
</svg>